<?xml version="1.0" encoding="utf-8"?>
<!-- Svg Vector Icons : http://www.onlinewebfonts.com/icon -->
<!DOCTYPE svg PUBLIC "-//W3C//DTD SVG 1.1//EN" "http://www.w3.org/Graphics/SVG/1.1/DTD/svg11.dtd">
<svg version="1.1" xmlns="http://www.w3.org/2000/svg" xmlns:xlink="http://www.w3.org/1999/xlink" x="0px" y="0px" viewBox="0 0 1000 1000" enable-background="new 0 0 1000 1000" xml:space="preserve">
<metadata> Svg Vector Icons : http://www.onlinewebfonts.com/icon </metadata>
<g><g transform="translate(0.000000,138.000000) scale(0.100000,-0.100000)"><path d="M5983.7-992.1c-597.1-106.8-1075.5-316.3-1308.8-573.3c-79.1-91-146.3-166.1-146.3-174c0-4,138.4-7.9,308.4-7.9c347.9,0,577.3-98.9,695.9-300.5c209.6-351.9-344-446.8-1261.4-217.5C2674.1-1865.9,1266.5-2028,946.2-2644.9c-31.6-63.2-51.4-110.7-47.4-110.7c7.9,0,98.9,27.7,205.6,59.3c280.7,87,624.8,79.1,739.4-15.8l90.9-75.1l-126.5-118.6c-71.2-67.2-261-166.1-431-229.3c-170-59.3-403.3-142.4-514-181.9C511.2-3447.6,100-3882.5,100-4127.7c0-71.2,15.8-71.2,229.3,35.6c367.7,177.9,838.3,280.7,1332.5,284.7c474.5,3.9,759.2-51.4,1063.7-201.7c205.6-102.8,561.5-442.8,510.1-486.3c-15.8-11.9-106.8-51.4-201.6-79.1c-181.9-55.3-529.9-268.9-549.6-340c-7.9-23.7,122.6-71.2,328.2-110.7c565.4-110.7,1067.6-288.7,1834.7-656.4c403.3-193.7,901.5-411.2,1107.2-482.4c371.7-126.5,383.6-130.5,1087.4-130.5c692,4,723.6,4,1079.5,126.5c917.4,308.4,1589.6,952.9,1850.5,1771.4c201.7,628.7,166.1,1198.1-110.7,1767.5c-126.5,264.9-221.4,391.5-502.2,672.2c-304.4,300.5-407.3,367.7-798.7,561.5C7557.4-1007.9,6719.2-861.6,5983.7-992.1z M7992.4-2783.3c261-87,573.3-399.4,660.3-660.3c142.4-411.2,71.2-739.4-221.4-1028.1c-237.2-233.3-474.5-328.2-917.4-363.8c-514-43.5-1051.8,134.4-2036.4,680.1c-336.1,181.9-620.8,332.1-640.6,332.1c-79.1,0-19.8,79.1,79.1,102.8c427,90.9,695.9,205.6,1150.7,478.5c308.4,185.8,502.1,280.7,893.6,431C7256.9-2696.3,7703.7-2684.4,7992.4-2783.3z"/></g></g>
</svg>